<svg width="511" height="177" viewBox="0 0 511 177" fill="none" xmlns="http://www.w3.org/2000/svg">
<path d="M477.227 78.7165L477.782 79.8093L505.782 134.809L507.263 137.716H495.754L495.205 136.597L486.21 118.275L472 89.7809L457.79 118.276L457.789 118.275L448.795 136.597L448.246 137.716H436.737L438.218 134.809L466.218 79.8093L466.773 78.7165H477.227Z" fill="white" stroke="white" stroke-width="4"/>
<path d="M384.863 78.7165V127.987H422V137.716H375V78.7165H384.863Z" fill="white" stroke="white" stroke-width="4"/>
<path d="M333.794 78.7165C337.604 78.7165 340.913 78.9142 343.703 79.322L343.702 79.3229C346.544 79.7155 349.021 80.4881 351.058 81.7136C353.179 82.9769 354.825 84.7942 356.001 87.0925C357.16 89.3576 357.924 92.1899 358.358 95.5114L358.51 96.7751C358.839 99.8043 359 103.393 359 107.529V108.904C359 114.629 358.654 119.366 357.933 123.071C357.225 126.81 355.928 129.895 353.896 132.135L353.897 132.136C351.877 134.387 349.124 135.843 345.794 136.601L345.793 136.6C342.571 137.357 338.556 137.716 333.794 137.716H321.206C316.444 137.716 312.428 137.357 309.206 136.6V136.601C305.877 135.843 303.118 134.389 301.08 132.146L301.071 132.136C299.062 129.898 297.765 126.812 297.036 123.071L297.034 123.059C296.336 119.359 296 114.627 296 108.904V107.529C296 102.803 296.21 98.7902 296.642 95.5114C297.076 92.1899 297.84 89.3576 298.999 87.0925C300.172 84.8003 301.803 82.9843 303.901 81.7194L303.91 81.7136C305.965 80.4898 308.451 79.7162 311.297 79.3229V79.322C314.087 78.9142 317.396 78.7165 321.206 78.7165H333.794ZM321.206 88.4225C318.269 88.4226 315.831 88.5251 313.88 88.7224L313.858 88.7243C311.993 88.8919 310.62 89.2892 309.646 89.8249L309.634 89.8317C308.808 90.2787 308.109 91.0129 307.575 92.1784C307.03 93.4153 306.602 95.2412 306.362 97.7507C306.121 100.276 305.997 103.529 305.997 107.529V108.904C305.997 112.764 306.121 115.925 306.362 118.404C306.601 120.856 307.027 122.675 307.576 123.944C308.119 125.152 308.839 125.954 309.705 126.469C310.682 127.039 312.05 127.471 313.902 127.679C315.844 127.897 318.273 128.01 321.206 128.01H333.794C336.727 128.01 339.156 127.897 341.098 127.679C342.958 127.47 344.314 127.035 345.264 126.469L345.27 126.466L345.276 126.463C346.158 125.946 346.869 125.149 347.388 123.955L347.393 123.944L347.397 123.934C347.962 122.672 348.399 120.857 348.638 118.404C348.879 115.925 349.003 112.764 349.003 108.904V107.529C349.003 103.529 348.879 100.276 348.638 97.7507C348.398 95.2461 347.961 93.429 347.402 92.1999L347.397 92.1891L347.393 92.1794C346.882 91.0211 346.191 90.2871 345.347 89.8376L345.329 89.8288L345.311 89.8181C344.365 89.289 343.008 88.892 341.142 88.7243L341.12 88.7224C339.169 88.5251 336.731 88.4226 333.794 88.4225H321.206Z" fill="white" stroke="white" stroke-width="4"/>
<path d="M225.914 78.7165L226.499 79.2946L270.151 122.496V78.7165H280V137.716H271.081L270.495 137.133L226.849 93.57V137.716H217V78.7165H225.914Z" fill="white" stroke="white" stroke-width="4"/>
<path d="M200.144 78.7165V88.446H159.875V102.779H198.46V112.508H159.875V127.987H201V137.716H150V78.7165H200.144Z" fill="white" stroke="white" stroke-width="4"/>
<path d="M64.9999 25.7164L128 61.9859L65.9999 97.7164L4 61.9859L64.9999 25.7164Z" fill="#00AE94"/>
<path d="M0 69.7165L26 84.2165V115.216L0 100.216V69.7165Z" fill="#55A13F"/>
<path d="M35 90.7165L61 104.716V135.716L35 120.716V90.7165Z" fill="#76B066"/>
<path d="M0 110.716L61.5 146.216V176.216L0 140.716V110.716Z" fill="#349419"/>
<path d="M70 105.216L97.5 89.7165V159.716L70 175.216V105.216Z" fill="#076096"/>
<path d="M105 84.7165L132.5 69.7165V99.7165L105 115.216V84.7165Z" fill="#3178A3"/>
<path d="M105 125.716L132.5 110.716V140.716L105 156.216V125.716Z" fill="#5B91B1"/>
</svg>
