<svg width="1049" height="179" viewBox="0 0 1049 179" fill="none" xmlns="http://www.w3.org/2000/svg">
<path d="M976.221 28L976.759 29.1602L1043.82 174.16L1045.13 177H1023.94L1023.41 175.814L1001.86 127.481V127.48L965.363 46.9287L928.871 127.48L928.872 127.481L907.318 175.814L906.79 177H885.598L886.912 174.16L953.969 29.1602L954.506 28H976.221Z" fill="white" stroke="white" stroke-width="4"/>
<path d="M753.892 28V157.896H842.83V177H735.849V28H753.892Z" fill="white" stroke="white" stroke-width="4"/>
<path d="M634.375 28C643.412 28 651.197 28.5164 657.713 29.5635L658.938 29.7617C664.995 30.809 670.16 32.6974 674.368 35.4873L674.795 35.7734C679.183 38.7704 682.612 42.9979 685.109 48.3691C687.672 53.8832 689.43 60.9361 690.442 69.4561C691.452 77.8995 691.951 88.3161 691.951 100.688V104.312C691.951 119.288 691.126 131.526 689.453 140.99L689.454 140.991C687.826 150.483 684.892 157.984 680.505 163.304L680.506 163.305C676.154 168.643 670.122 172.226 662.552 174.126C655.098 176.057 645.688 177 634.375 177H604.231C592.924 177 583.52 176.058 576.068 174.13C568.492 172.231 562.435 168.648 558.032 163.313L558.025 163.305C553.691 157.989 550.756 150.492 549.077 141.001L549.076 140.991C547.454 131.531 546.653 119.292 546.653 104.312V100.688C546.653 88.3161 547.153 77.8995 548.163 69.4561C549.175 60.9361 550.934 53.8832 553.497 48.3691C556.072 42.8307 559.613 38.5058 564.153 35.4932L564.162 35.4863C568.698 32.5124 574.3 30.5619 580.893 29.5635C587.408 28.5164 595.194 28 604.231 28H634.375ZM604.231 47.0439C597.144 47.0439 591.214 47.3139 586.425 47.8467L586.412 47.8486L586.401 47.8496C581.71 48.3135 578.033 49.4314 575.272 51.1045L575.265 51.1084L575.259 51.1123C572.663 52.6591 570.57 55.1792 569.053 58.8564C567.565 62.5838 566.495 67.7956 565.905 74.5791C565.314 81.3872 565.015 90.0848 565.015 100.688V104.312C565.015 114.551 565.314 123.006 565.905 129.692C566.494 136.351 567.563 141.541 569.057 145.338L569.35 146.027C570.845 149.41 572.851 151.851 575.319 153.473L575.849 153.801C578.551 155.409 582.057 156.522 586.448 157.065C591.227 157.656 597.149 157.956 604.231 157.956H634.375C641.457 157.956 647.378 157.656 652.156 157.065C656.841 156.486 660.487 155.258 663.198 153.48L663.205 153.477L663.211 153.473C665.89 151.745 667.995 149.089 669.466 145.357L669.474 145.338C671.015 141.547 672.111 136.358 672.7 129.692C673.292 123.006 673.59 114.551 673.59 104.312V100.688C673.59 90.0848 673.292 81.3872 672.7 74.5791C672.11 67.7879 671.013 62.5774 669.478 58.8564L669.47 58.8369C668.005 55.1771 665.92 52.6651 663.283 51.1191L663.265 51.1084L663.246 51.0967C660.541 49.4311 656.897 48.3136 652.205 47.8496L652.193 47.8486L652.181 47.8467C647.392 47.3138 641.462 47.044 634.375 47.0439H604.231Z" fill="white" stroke="white" stroke-width="4"/>
<path d="M374.926 28L375.52 28.6475L484.749 147.648V28H502.755V177H485.283L484.687 176.347L375.463 56.3418V177H357.457V28H374.926Z" fill="white" stroke="white" stroke-width="4"/>
<path d="M311.508 28V47.1045H215.07V91.4375H307.478V110.542H215.07V157.896H313.56V177H197V28H311.508Z" fill="white" stroke="white" stroke-width="4"/>
<path d="M64.9999 25.7164L128 61.9859L65.9999 97.7164L4 61.9859L64.9999 25.7164Z" fill="#00AE94"/>
<path d="M0 69.7165L26 84.2165V115.216L0 100.216V69.7165Z" fill="#55A13F"/>
<path d="M35 90.7165L61 104.716V135.716L35 120.716V90.7165Z" fill="#76B066"/>
<path d="M0 110.716L61.5 146.216V176.216L0 140.716V110.716Z" fill="#349419"/>
<path d="M70 105.216L97.5 89.7165V159.716L70 175.216V105.216Z" fill="#076096"/>
<path d="M105 84.7165L132.5 69.7165V99.7165L105 115.216V84.7165Z" fill="#3178A3"/>
<path d="M105 125.716L132.5 110.716V140.716L105 156.216V125.716Z" fill="#5B91B1"/>
</svg>
