<svg width="270" height="308" viewBox="0 0 270 308" fill="none" xmlns="http://www.w3.org/2000/svg">
<path d="M132.453 16.7643L260.83 86.95L134.49 156.093L8.15092 86.9501L132.453 16.7643Z" fill="#FFA21A"/>
<path d="M0 101.91L52.9811 129.969V189.958L0 160.931V101.91Z" fill="#55A13F"/>
<path d="M71.3207 142.547L124.302 169.639V229.628L71.3207 200.601V142.547Z" fill="#76B066"/>
<path d="M0 181.25L125.321 249.946V308L0 239.303V181.25Z" fill="#349419"/>
<path d="M142.642 170.606L198.679 140.612V276.071L142.642 306.065V170.606Z" fill="#076096"/>
<path d="M213.962 130.937L270 101.91V159.963L213.962 189.958V130.937Z" fill="#3178A3"/>
<path d="M213.962 210.276L270 181.25V239.303L213.962 269.298V210.276Z" fill="#5B91B1"/>
</svg>
