<svg width="61" height="86" viewBox="0 0 61 86" fill="none" xmlns="http://www.w3.org/2000/svg">
<path d="M50.5 11H19C5 23.8 18.1667 31.3333 26.5 33.5C37.7 35.9 44.1667 39.8333 46 41.5C70.4 62.3 54.1667 79.5 43 85.5C25.4 73.1 7 70.6667 0 71V41.5L6.5 47.5V59.5L40 71C56.8 58.2 36 50 23.5 47.5C6.3 44.7 0.666667 33 0 27.5V6.5L6.5 0H53L61 6.5V47.5L53 39.5V15.5C53 12.7 51.3333 11.3333 50.5 11Z" fill="url(#paint0_linear_3_3)"/>
<defs>
<linearGradient id="paint0_linear_3_3" x1="30.5" y1="0" x2="30.5" y2="85.5" gradientUnits="userSpaceOnUse">
<stop stop-color="#088EFB"/>
<stop offset="1" stop-color="#0FF3FF"/>
</linearGradient>
</defs>
</svg>
