<svg width="424" height="89" viewBox="0 0 424 89" fill="none" xmlns="http://www.w3.org/2000/svg">
<path d="M50.5 11H19C5 23.8 18.1667 31.3333 26.5 33.5C37.7 35.9 44.1667 39.8333 46 41.5C70.4 62.3 54.1667 79.5 43 85.5C25.4 73.1 7 70.6667 0 71V41.5L6.5 47.5V59.5L40 71C56.8 58.2 36 50 23.5 47.5C6.3 44.7 0.666667 33 0 27.5V6.5L6.5 0H53L61 6.5V47.5L53 39.5V15.5C53 12.7 51.3333 11.3333 50.5 11Z" fill="url(#paint0_linear_7_33)"/>
<path d="M78.7969 68.6348C76.3392 68.6348 73.8652 68.3418 71.375 67.7559C68.8848 67.1699 66.7363 66.3724 64.9297 65.3633L67.4199 60.0654C68.8034 60.7979 70.4554 61.4652 72.376 62.0674C74.3128 62.6533 76.3962 62.9463 78.626 62.9463C80.1071 62.9463 81.222 62.7347 81.9707 62.3115C82.7357 61.8883 83.2484 61.3024 83.5088 60.5537C83.7855 59.7887 83.9238 58.918 83.9238 57.9414C83.9238 57.2741 83.8099 56.6637 83.582 56.1104C83.3542 55.5407 82.8822 55.0199 82.166 54.5479C81.4661 54.0596 80.3919 53.6038 78.9434 53.1807L72.791 51.374C70.8379 50.7881 69.3161 50.0068 68.2256 49.0303C67.1514 48.0374 66.3945 46.8818 65.9551 45.5635C65.5319 44.2451 65.3203 42.821 65.3203 41.291C65.3203 39.0449 65.8656 37.1895 66.9561 35.7246C68.0628 34.2598 69.5602 33.1693 71.4482 32.4531C73.3525 31.7207 75.4847 31.3545 77.8447 31.3545C80.221 31.3545 82.4102 31.5824 84.4121 32.0381C86.4141 32.4938 88.2451 33.2018 89.9053 34.1621L87.8545 39.2646C86.5199 38.6299 85.0632 38.1009 83.4844 37.6777C81.9056 37.2546 80.2373 37.043 78.4795 37.043C76.6403 37.043 75.1755 37.3278 74.085 37.8975C72.9945 38.4508 72.4492 39.5007 72.4492 41.0469C72.4492 42.2839 72.7666 43.236 73.4014 43.9033C74.0524 44.5706 75.2894 45.181 77.1123 45.7344L83.2402 47.5654C85.6654 48.2979 87.4883 49.4616 88.709 51.0566C89.9297 52.6517 90.54 54.8652 90.54 57.6973C90.54 59.7318 90.1331 61.5791 89.3193 63.2393C88.5055 64.8831 87.236 66.1934 85.5107 67.1699C83.7855 68.1465 81.5475 68.6348 78.7969 68.6348ZM113.172 68.6348C109.933 68.6348 107.272 68.3011 105.188 67.6338C103.105 66.9665 101.486 66.0469 100.33 64.875C99.1745 63.7031 98.3607 62.3359 97.8887 60.7734C97.4329 59.2109 97.2051 57.5426 97.2051 55.7686V44.4893C97.2051 42.6663 97.4329 40.9655 97.8887 39.3867C98.3444 37.7917 99.1501 36.3919 100.306 35.1875C101.461 33.9831 103.081 33.0472 105.164 32.3799C107.247 31.6963 109.917 31.3545 113.172 31.3545C116.281 31.3545 118.836 31.7126 120.838 32.4287C122.856 33.1449 124.427 34.1296 125.55 35.3828C126.689 36.6198 127.479 38.0521 127.918 39.6797C128.374 41.3073 128.602 43.0326 128.602 44.8555V55.3779C128.602 57.152 128.374 58.8366 127.918 60.4316C127.462 62.0104 126.665 63.4183 125.525 64.6553C124.402 65.8923 122.84 66.8688 120.838 67.585C118.836 68.2848 116.281 68.6348 113.172 68.6348ZM113.172 62.9463C114.995 62.9463 116.508 62.7591 117.713 62.3848C118.917 62.0104 119.821 61.3594 120.423 60.4316C121.025 59.5039 121.326 58.2181 121.326 56.5742V43.5127C121.326 41.9014 121.025 40.6237 120.423 39.6797C119.821 38.7357 118.909 38.0602 117.688 37.6533C116.484 37.2464 114.979 37.043 113.172 37.043C111.382 37.043 109.835 37.2383 108.533 37.6289C107.231 38.0195 106.23 38.6868 105.53 39.6309C104.83 40.5749 104.48 41.8688 104.48 43.5127V56.5742C104.48 58.2181 104.822 59.5039 105.506 60.4316C106.206 61.3594 107.207 62.0104 108.509 62.3848C109.811 62.7591 111.365 62.9463 113.172 62.9463ZM137.146 68V31.9648H151.014C154.383 31.9648 156.987 32.3066 158.826 32.9902C160.682 33.6738 161.967 34.7155 162.684 36.1152C163.416 37.4987 163.782 39.2728 163.782 41.4375C163.782 43.4069 163.424 44.9938 162.708 46.1982C161.992 47.3864 160.494 48.1758 158.216 48.5664V48.2734C160.153 48.4036 161.634 48.8512 162.659 49.6162C163.685 50.3649 164.384 51.374 164.759 52.6436C165.133 53.9131 165.32 55.3861 165.32 57.0625C165.32 60.8385 164.344 63.6055 162.391 65.3633C160.454 67.1211 157.247 68 152.771 68H137.146ZM144.397 62.9219H151.429C153.317 62.9219 154.733 62.7673 155.677 62.458C156.637 62.1488 157.28 61.5628 157.605 60.7002C157.931 59.8213 158.094 58.5518 158.094 56.8916C158.094 55.6872 157.972 54.6374 157.728 53.7422C157.5 52.8307 156.963 52.1227 156.116 51.6182C155.286 51.0973 153.968 50.8369 152.161 50.8369H144.397V62.9219ZM144.397 46.4668H151.893C153.309 46.4668 154.326 46.2796 154.944 45.9053C155.579 45.5309 155.978 44.9775 156.141 44.2451C156.303 43.4964 156.385 42.585 156.385 41.5107C156.385 40.2412 156.238 39.2809 155.945 38.6299C155.652 37.9626 155.091 37.515 154.261 37.2871C153.431 37.043 152.194 36.9209 150.55 36.9209H144.397V46.4668ZM172.693 68V31.9648H188.318C191.801 31.9648 194.503 32.5264 196.424 33.6494C198.344 34.7562 199.687 36.2617 200.452 38.166C201.217 40.054 201.6 42.1781 201.6 44.5381V55.5977C201.6 57.9902 201.193 60.1224 200.379 61.9941C199.581 63.8659 198.222 65.3389 196.302 66.4131C194.381 67.471 191.728 68 188.343 68H172.693ZM179.944 62.3604H187.708C189.417 62.3604 190.752 62.1569 191.712 61.75C192.672 61.3268 193.348 60.6839 193.738 59.8213C194.145 58.9587 194.349 57.86 194.349 56.5254V43.5859C194.349 42.2839 194.145 41.1934 193.738 40.3145C193.331 39.4193 192.64 38.7438 191.663 38.2881C190.703 37.8324 189.384 37.6045 187.708 37.6045H179.944V62.3604ZM225.379 68.6348C222.14 68.6348 219.479 68.3011 217.396 67.6338C215.312 66.9665 213.693 66.0469 212.537 64.875C211.382 63.7031 210.568 62.3359 210.096 60.7734C209.64 59.2109 209.412 57.5426 209.412 55.7686V44.4893C209.412 42.6663 209.64 40.9655 210.096 39.3867C210.551 37.7917 211.357 36.3919 212.513 35.1875C213.668 33.9831 215.288 33.0472 217.371 32.3799C219.454 31.6963 222.124 31.3545 225.379 31.3545C228.488 31.3545 231.043 31.7126 233.045 32.4287C235.063 33.1449 236.634 34.1296 237.757 35.3828C238.896 36.6198 239.686 38.0521 240.125 39.6797C240.581 41.3073 240.809 43.0326 240.809 44.8555V55.3779C240.809 57.152 240.581 58.8366 240.125 60.4316C239.669 62.0104 238.872 63.4183 237.732 64.6553C236.609 65.8923 235.047 66.8688 233.045 67.585C231.043 68.2848 228.488 68.6348 225.379 68.6348ZM225.379 62.9463C227.202 62.9463 228.715 62.7591 229.92 62.3848C231.124 62.0104 232.028 61.3594 232.63 60.4316C233.232 59.5039 233.533 58.2181 233.533 56.5742V43.5127C233.533 41.9014 233.232 40.6237 232.63 39.6797C232.028 38.7357 231.116 38.0602 229.896 37.6533C228.691 37.2464 227.186 37.043 225.379 37.043C223.589 37.043 222.042 37.2383 220.74 37.6289C219.438 38.0195 218.437 38.6868 217.737 39.6309C217.037 40.5749 216.688 41.8688 216.688 43.5127V56.5742C216.688 58.2181 217.029 59.5039 217.713 60.4316C218.413 61.3594 219.414 62.0104 220.716 62.3848C222.018 62.7591 223.572 62.9463 225.379 62.9463ZM264.563 68.6348C261.357 68.6348 258.712 68.3255 256.629 67.707C254.562 67.0723 252.942 66.1934 251.771 65.0703C250.615 63.9473 249.801 62.6289 249.329 61.1152C248.857 59.6016 248.621 57.9577 248.621 56.1836V44.1475C248.621 42.3245 248.849 40.64 249.305 39.0938C249.777 37.5312 250.59 36.1722 251.746 35.0166C252.918 33.861 254.537 32.9658 256.604 32.3311C258.688 31.68 261.341 31.3545 264.563 31.3545C267.688 31.3545 270.219 31.6556 272.156 32.2578C274.109 32.86 275.599 33.7064 276.624 34.7969C277.666 35.8874 278.374 37.165 278.748 38.6299C279.139 40.0947 279.334 41.6898 279.334 43.415V43.9766L272.205 44.5137V43.0732C272.205 41.4619 271.945 40.2249 271.424 39.3623C270.903 38.4834 270.081 37.8812 268.958 37.5557C267.835 37.2139 266.37 37.043 264.563 37.043C262.773 37.043 261.227 37.222 259.925 37.5801C258.639 37.9219 257.646 38.5485 256.946 39.46C256.246 40.3551 255.896 41.6328 255.896 43.293V56.916C255.896 58.5599 256.238 59.8213 256.922 60.7002C257.622 61.5628 258.615 62.1569 259.9 62.4824C261.202 62.7917 262.757 62.9463 264.563 62.9463C266.403 62.9463 267.933 62.7917 269.153 62.4824C270.374 62.1569 271.285 61.5628 271.888 60.7002C272.506 59.8213 272.815 58.5599 272.815 56.916V54.2793H265.54V49.5186H279.358V68H275.525L274.378 63.8496C274.28 64.1426 274.077 64.5495 273.768 65.0703C273.458 65.5911 272.954 66.1283 272.254 66.6816C271.554 67.2188 270.586 67.6745 269.349 68.0488C268.112 68.4395 266.517 68.6348 264.563 68.6348ZM303.846 68.6348C300.607 68.6348 297.946 68.3011 295.862 67.6338C293.779 66.9665 292.16 66.0469 291.004 64.875C289.848 63.7031 289.035 62.3359 288.562 60.7734C288.107 59.2109 287.879 57.5426 287.879 55.7686V44.4893C287.879 42.6663 288.107 40.9655 288.562 39.3867C289.018 37.7917 289.824 36.3919 290.979 35.1875C292.135 33.9831 293.755 33.0472 295.838 32.3799C297.921 31.6963 300.59 31.3545 303.846 31.3545C306.954 31.3545 309.51 31.7126 311.512 32.4287C313.53 33.1449 315.101 34.1296 316.224 35.3828C317.363 36.6198 318.152 38.0521 318.592 39.6797C319.048 41.3073 319.275 43.0326 319.275 44.8555V55.3779C319.275 57.152 319.048 58.8366 318.592 60.4316C318.136 62.0104 317.339 63.4183 316.199 64.6553C315.076 65.8923 313.514 66.8688 311.512 67.585C309.51 68.2848 306.954 68.6348 303.846 68.6348ZM303.846 62.9463C305.669 62.9463 307.182 62.7591 308.387 62.3848C309.591 62.0104 310.494 61.3594 311.097 60.4316C311.699 59.5039 312 58.2181 312 56.5742V43.5127C312 41.9014 311.699 40.6237 311.097 39.6797C310.494 38.7357 309.583 38.0602 308.362 37.6533C307.158 37.2464 305.652 37.043 303.846 37.043C302.055 37.043 300.509 37.2383 299.207 37.6289C297.905 38.0195 296.904 38.6868 296.204 39.6309C295.504 40.5749 295.154 41.8688 295.154 43.5127V56.5742C295.154 58.2181 295.496 59.5039 296.18 60.4316C296.88 61.3594 297.881 62.0104 299.183 62.3848C300.485 62.7591 302.039 62.9463 303.846 62.9463ZM327.82 31.9648H335.071V62.3359H350.135V68H327.82V31.9648ZM356.434 31.9648H370.569C374.524 31.9648 377.47 32.8682 379.407 34.6748C381.344 36.4652 382.312 39.3949 382.312 43.4639C382.312 46.2471 381.93 48.5339 381.165 50.3242C380.4 52.0983 379.106 53.4167 377.283 54.2793C375.477 55.1419 373.003 55.5732 369.861 55.5732H363.685V68H356.434V31.9648ZM371.009 50.2754C372.229 50.2754 373.165 50.0394 373.816 49.5674C374.467 49.0954 374.915 48.3792 375.159 47.4189C375.403 46.4587 375.525 45.2624 375.525 43.8301C375.525 42.5605 375.403 41.4212 375.159 40.4121C374.931 39.403 374.508 38.6055 373.89 38.0195C373.271 37.4173 372.392 37.1162 371.253 37.1162H363.685V50.2754H371.009ZM404.285 68.6348C401.046 68.6348 398.385 68.3011 396.302 67.6338C394.218 66.9665 392.599 66.0469 391.443 64.875C390.288 63.7031 389.474 62.3359 389.002 60.7734C388.546 59.2109 388.318 57.5426 388.318 55.7686V44.4893C388.318 42.6663 388.546 40.9655 389.002 39.3867C389.458 37.7917 390.263 36.3919 391.419 35.1875C392.575 33.9831 394.194 33.0472 396.277 32.3799C398.361 31.6963 401.03 31.3545 404.285 31.3545C407.394 31.3545 409.949 31.7126 411.951 32.4287C413.969 33.1449 415.54 34.1296 416.663 35.3828C417.802 36.6198 418.592 38.0521 419.031 39.6797C419.487 41.3073 419.715 43.0326 419.715 44.8555V55.3779C419.715 57.152 419.487 58.8366 419.031 60.4316C418.576 62.0104 417.778 63.4183 416.639 64.6553C415.516 65.8923 413.953 66.8688 411.951 67.585C409.949 68.2848 407.394 68.6348 404.285 68.6348ZM404.285 62.9463C406.108 62.9463 407.622 62.7591 408.826 62.3848C410.031 62.0104 410.934 61.3594 411.536 60.4316C412.138 59.5039 412.439 58.2181 412.439 56.5742V43.5127C412.439 41.9014 412.138 40.6237 411.536 39.6797C410.934 38.7357 410.022 38.0602 408.802 37.6533C407.597 37.2464 406.092 37.043 404.285 37.043C402.495 37.043 400.949 37.2383 399.646 37.6289C398.344 38.0195 397.343 38.6868 396.644 39.6309C395.944 40.5749 395.594 41.8688 395.594 43.5127V56.5742C395.594 58.2181 395.936 59.5039 396.619 60.4316C397.319 61.3594 398.32 62.0104 399.622 62.3848C400.924 62.7591 402.479 62.9463 404.285 62.9463Z" fill="white"/>
<defs>
<linearGradient id="paint0_linear_7_33" x1="30.5" y1="0" x2="30.5" y2="85.5" gradientUnits="userSpaceOnUse">
<stop stop-color="#088EFB"/>
<stop offset="1" stop-color="#0FF3FF"/>
</linearGradient>
</defs>
</svg>
